<svg width="25" height="24" viewBox="0 0 25 24" fill="none" xmlns="http://www.w3.org/2000/svg">
<g clip-path="url(#clip0_15_61)">
<path d="M7.98845 19.3601C6.71638 19.3601 5.68715 20.4041 5.68715 21.68C5.68715 22.9561 6.71638 24 7.98845 24C9.26052 24 10.3013 22.9561 10.3013 21.68C10.3013 20.4041 9.26052 19.3601 7.98845 19.3601ZM1.04987 0.800049V3.12005H3.36273L7.52588 11.9244L5.9647 14.7664C5.77967 15.0912 5.67559 15.474 5.67559 15.88C5.67559 17.156 6.71638 18.2001 7.98845 18.2001H21.8656V15.88H8.47415C8.31225 15.88 8.18504 15.7524 8.18504 15.59L8.21974 15.4509L9.26052 13.5601H17.8759C18.7433 13.5601 19.5065 13.0844 19.8997 12.3652L24.0397 4.83685C24.1322 4.67445 24.1785 4.47725 24.1785 4.28005C24.1785 3.64205 23.6581 3.12005 23.022 3.12005H5.91844L4.83139 0.800049H1.04987ZM19.5528 19.3601C18.2807 19.3601 17.2515 20.4041 17.2515 21.68C17.2515 22.9561 18.2807 24 19.5528 24C20.8248 24 21.8656 22.9561 21.8656 21.68C21.8656 20.4041 20.8248 19.3601 19.5528 19.3601Z" fill="#7B8D9E"/>
</g>
<defs>
<clipPath id="clip0_15_61">
<rect width="23.9262" height="24" fill="white" transform="translate(0.252319)"/>
</clipPath>
</defs>
</svg>
