<svg width="25" height="24" viewBox="0 0 25 24" fill="none" xmlns="http://www.w3.org/2000/svg">
<path d="M12.0429 0C5.43932 0 0.0798645 5.376 0.0798645 12C0.0798645 18.624 5.43932 24 12.0429 24C18.6466 24 24.006 18.624 24.006 12C24.006 5.376 18.6466 0 12.0429 0ZM12.0429 4.8C14.3518 4.8 16.23 6.684 16.23 9C16.23 11.316 14.3518 13.2 12.0429 13.2C9.73407 13.2 7.85586 11.316 7.85586 9C7.85586 6.684 9.73407 4.8 12.0429 4.8ZM12.0429 21.6C9.61444 21.6 6.7433 20.616 4.69761 18.144C6.79307 16.4949 9.37951 15.5986 12.0429 15.5986C14.7064 15.5986 17.2928 16.4949 19.3883 18.144C17.3426 20.616 14.4714 21.6 12.0429 21.6Z" fill="#7B8D9E"/>
</svg>
