<svg width="25" height="31" viewBox="0 0 25 31" fill="none" xmlns="http://www.w3.org/2000/svg">
<path d="M9.24308 21.0125L11.365 21.0125L11.365 23.1288C11.365 23.7195 11.8585 24.2609 12.5 24.2609C13.0922 24.2609 13.635 23.7687 13.635 23.1288L13.635 21.0125L15.7569 21.0125C16.3491 21.0125 16.8919 20.5203 16.8919 19.8804C16.8919 19.2406 16.3984 18.7484 15.7569 18.7484L13.635 18.7484L13.635 16.632C13.635 16.0414 13.1415 15.5 12.5 15.5C11.9078 15.5 11.365 15.9922 11.365 16.632L11.365 18.7484L9.24308 18.7484C8.65091 18.7484 8.10809 19.2406 8.10809 19.8804C8.10809 20.5203 8.65091 21.0125 9.24308 21.0125Z" fill="#7B8D9E"/>
<path d="M3.1639 31L21.8361 31C23.5996 31 25 29.6188 25 27.8795L25 11.4587C25 10.6914 24.6888 9.97525 24.1183 9.4637L14.7822 0.767328C14.2635 0.255777 13.5892 2.73033e-06 12.8631 2.66701e-06L3.16391 1.8213e-06C1.40042 1.66753e-06 7.06648e-06 1.38119 6.91403e-06 3.12046L4.74386e-06 27.8795C4.59141e-06 29.6188 1.40042 31 3.1639 31ZM20.9544 9.71947L14.8859 9.71947C14.6266 9.71947 14.4191 9.51485 14.4191 9.31023L14.4191 3.68317L20.9544 9.71947ZM2.33403 3.22277C2.33403 2.76238 2.6971 2.40429 3.16391 2.40429L12.0851 2.40429L12.0851 9.31023C12.0851 10.7937 13.3299 12.0215 14.8859 12.0215L22.666 12.0215L22.666 27.8795C22.666 28.3399 22.3029 28.698 21.8361 28.698L3.1639 28.698C2.6971 28.698 2.33403 28.3399 2.33403 27.8795L2.33403 3.22277Z" fill="#7B8D9E"/>
</svg>
