<svg width="25" height="24" viewBox="0 0 25 24" fill="none" xmlns="http://www.w3.org/2000/svg">
<path d="M13.6798 31.1798L16.8202 31.1798L16.8202 34.3202C16.8202 35.1966 17.5506 36 18.5 36C19.3764 36 20.1798 35.2697 20.1798 34.3202L20.1798 31.1798L23.3202 31.1798C24.1966 31.1798 25 30.4494 25 29.5C25 28.5506 24.2697 27.8202 23.3202 27.8202L20.1798 27.8202L20.1798 24.6798C20.1798 23.8034 19.4494 23 18.5 23C17.6236 23 16.8202 23.7303 16.8202 24.6798L16.8202 27.8202L13.6798 27.8202C12.8034 27.8202 12 28.5506 12 29.5C12 30.4494 12.8034 31.1798 13.6798 31.1798Z" fill="#7B8D9E"/>
<path d="M4.68257 46L32.3174 46C34.9274 46 37 43.9505 37 41.3696L37 17.0033C37 15.8647 36.5394 14.802 35.695 14.0429L21.8776 1.13861C21.11 0.379533 20.112 -2.48967e-06 19.0373 -2.58362e-06L4.68258 -3.83856e-06C2.07262 -4.06673e-06 3.36544e-06 2.0495 3.13981e-06 4.63036L-7.20379e-08 41.3696C-2.97664e-07 43.9505 2.07261 46 4.68257 46ZM31.0125 14.4224L22.0311 14.4224C21.6473 14.4224 21.3403 14.1188 21.3403 13.8152L21.3403 5.46534L31.0125 14.4224ZM3.45436 4.78218C3.45436 4.09901 3.9917 3.56765 4.68258 3.56765L17.8859 3.56765L17.8859 13.8152C17.8859 16.0165 19.7282 17.8383 22.0311 17.8383L33.5456 17.8383L33.5456 41.3696C33.5456 42.0528 33.0083 42.5842 32.3174 42.5842L4.68257 42.5842C3.9917 42.5842 3.45436 42.0528 3.45436 41.3696L3.45436 4.78218Z" fill="#7B8D9E"/>
</svg>
