<svg width="20" height="24" viewBox="0 0 20 24" fill="none" xmlns="http://www.w3.org/2000/svg">
<path d="M12.475 8.2875H10.8625V6.675C10.8625 6.225 10.4875 5.8125 10 5.8125C9.55001 5.8125 9.13751 6.1875 9.13751 6.675V8.2875H7.52501C7.07501 8.2875 6.66251 8.6625 6.66251 9.15C6.66251 9.6375 7.03751 10.0125 7.52501 10.0125H9.13751V11.625C9.13751 12.075 9.51251 12.4875 10 12.4875C10.45 12.4875 10.8625 12.1125 10.8625 11.625V10.0125H12.475C12.925 10.0125 13.3375 9.6375 13.3375 9.15C13.3375 8.6625 12.925 8.2875 12.475 8.2875Z" fill="#7B8D9E"/>
<path d="M16.75 0.675003H3.24999C1.97499 0.675003 0.962494 1.6875 0.962494 2.9625V15C0.962494 15.5625 1.18749 16.0875 1.59999 16.4625L8.34999 22.8375C8.72499 23.2125 9.21249 23.4 9.73749 23.4H16.75C18.025 23.4 19.0375 22.3875 19.0375 21.1125V2.9625C19.0375 1.6875 18.025 0.675003 16.75 0.675003ZM3.88749 16.275H8.27499C8.46249 16.275 8.61249 16.425 8.61249 16.575V20.7L3.88749 16.275ZM17.35 21.0375C17.35 21.375 17.0875 21.6375 16.75 21.6375H10.3V16.575C10.3 15.4875 9.39999 14.5875 8.27499 14.5875H2.64999V2.9625C2.64999 2.625 2.91249 2.3625 3.24999 2.3625H16.75C17.0875 2.3625 17.35 2.625 17.35 2.9625V21.0375Z" fill="#7B8D9E"/>
</svg>
