<svg width="25" height="24" viewBox="0 0 25 24" fill="none" xmlns="http://www.w3.org/2000/svg">
<g clip-path="url(#clip0_15_54)">
<path d="M23.5456 7.21333L17.1056 0.773333C16.6123 0.28 15.9323 0 15.2256 0H2.99897C1.53231 0 0.332306 1.2 0.332306 2.66667V21.3333C0.332306 22.8 1.53231 24 2.99897 24H21.6656C23.1323 24 24.3323 22.8 24.3323 21.3333V9.10667C24.3323 8.4 24.0523 7.72 23.5456 7.21333ZM5.66564 5.33333H14.999V8H5.66564V5.33333ZM18.999 18.6667H5.66564V16H18.999V18.6667ZM18.999 13.3333H5.66564V10.6667H18.999V13.3333Z" fill="#7B8D9E"/>
</g>
<defs>
<clipPath id="clip0_15_54">
<rect width="24" height="24" fill="white" transform="translate(0.332306)"/>
</clipPath>
</defs>
</svg>
